<?xml version="1.0" standalone="no"?>
<!DOCTYPE svg PUBLIC "-//W3C//DTD SVG 20010904//EN"
 "http://www.w3.org/TR/2001/REC-SVG-20010904/DTD/svg10.dtd">
<svg version="1.0" xmlns="http://www.w3.org/2000/svg"
 width="1920.000000pt" height="500.000000pt" viewBox="0 0 1920.000000 500.000000"
 preserveAspectRatio="xMidYMid meet">

<g transform="translate(0.000000,500.000000) scale(0.100000,-0.100000)"
fill="#000000" stroke="none">
<path d="M60 4984 c0 -8 5 -12 10 -9 6 3 10 10 10 16 0 5 -4 9 -10 9 -5 0 -10
-7 -10 -16z"/>
<path d="M960 4775 c0 -143 4 -225 10 -225 6 0 10 82 10 225 0 143 -4 225 -10
225 -6 0 -10 -82 -10 -225z"/>
<path d="M3420 4881 c0 -69 4 -122 10 -126 6 -4 10 38 10 119 0 77 -4 126 -10
126 -6 0 -10 -46 -10 -119z"/>
<path d="M4703 4965 c0 -22 2 -30 4 -17 2 12 2 30 0 40 -3 9 -5 -1 -4 -23z"/>
<path d="M5590 4780 c0 -140 4 -220 10 -220 6 0 10 80 10 220 0 140 -4 220
-10 220 -6 0 -10 -80 -10 -220z"/>
<path d="M6106 4985 c-3 -9 1 -18 10 -22 19 -7 39 11 30 26 -10 16 -33 13 -40
-4z"/>
<path d="M8080 4875 c0 -77 4 -125 10 -125 6 0 10 48 10 125 0 77 -4 125 -10
125 -6 0 -10 -48 -10 -125z"/>
<path d="M9350 4965 c0 -19 5 -35 10 -35 6 0 10 16 10 35 0 19 -4 35 -10 35
-5 0 -10 -16 -10 -35z"/>
<path d="M10250 4780 c0 -140 4 -220 10 -220 6 0 10 80 10 220 0 140 -4 220
-10 220 -6 0 -10 -80 -10 -220z"/>
<path d="M10764 4989 c-9 -15 11 -33 30 -26 9 4 13 13 10 22 -7 17 -30 20 -40
4z"/>
<path d="M12700 4881 c0 -69 4 -122 10 -126 6 -4 10 38 10 119 0 77 -4 126
-10 126 -6 0 -10 -46 -10 -119z"/>
<path d="M13983 4960 c0 -25 2 -35 4 -22 2 12 2 32 0 45 -2 12 -4 2 -4 -23z"/>
<path d="M14870 4780 c0 -140 4 -220 10 -220 6 0 10 80 10 220 0 140 -4 220
-10 220 -6 0 -10 -80 -10 -220z"/>
<path d="M15386 4985 c-3 -9 1 -18 10 -22 19 -7 39 11 30 26 -10 16 -33 13
-40 -4z"/>
<path d="M17670 4840 c0 -100 4 -160 10 -160 6 0 10 60 10 160 0 100 -4 160
-10 160 -6 0 -10 -60 -10 -160z"/>
<path d="M18078 4993 c6 -2 18 -2 25 0 6 3 1 5 -13 5 -14 0 -19 -2 -12 -5z"/>
<path d="M18940 4984 c0 -8 5 -12 10 -9 6 3 10 10 10 16 0 5 -4 9 -10 9 -5 0
-10 -7 -10 -16z"/>
<path d="M67 4943 c-11 -11 -8 -413 3 -413 6 0 10 77 10 210 0 116 -1 210 -3
210 -2 0 -7 -3 -10 -7z"/>
<path d="M5770 4916 c0 -19 5 -38 10 -41 6 -4 10 10 10 34 0 23 -4 41 -10 41
-5 0 -10 -15 -10 -34z"/>
<path d="M10430 4912 c0 -26 4 -41 10 -37 13 8 13 45 0 65 -7 11 -10 3 -10
-28z"/>
<path d="M15050 4916 c0 -19 5 -38 10 -41 6 -4 10 10 10 34 0 23 -4 41 -10 41
-5 0 -10 -15 -10 -34z"/>
<path d="M18947 4943 c-11 -11 -8 -413 3 -413 6 0 10 77 10 210 0 116 -1 210
-3 210 -2 0 -7 -3 -10 -7z"/>
<path d="M10495 4900 c-16 -16 -26 -32 -24 -35 3 -3 18 9 34 25 16 16 26 32
24 35 -3 3 -18 -9 -34 -25z"/>
<path d="M4352 4913 c-27 -4 -33 -8 -30 -26 2 -12 15 -28 30 -36 24 -14 28
-14 47 3 12 11 21 30 21 43 0 24 -1 24 -68 16z"/>
<path d="M5696 4908 c13 -23 37 -48 46 -48 5 0 0 14 -12 30 -20 29 -49 43 -34
18z"/>
<path d="M5840 4895 c-13 -14 -21 -27 -18 -30 2 -3 17 9 33 25 16 17 24 30 19
30 -6 0 -21 -11 -34 -25z"/>
<path d="M9007 4913 c-37 -6 -34 -41 6 -63 27 -14 29 -14 48 9 37 45 16 65
-54 54z"/>
<path d="M10350 4915 c1 -16 40 -58 47 -51 4 4 -5 19 -20 34 -15 14 -27 22
-27 17z"/>
<path d="M13632 4913 c-27 -4 -33 -8 -30 -26 2 -12 15 -28 30 -36 24 -14 28
-14 47 3 12 11 21 30 21 43 0 24 -1 24 -68 16z"/>
<path d="M14976 4908 c13 -23 37 -48 46 -48 5 0 0 14 -12 30 -20 29 -49 43
-34 18z"/>
<path d="M15120 4895 c-13 -14 -21 -27 -18 -30 2 -3 17 9 33 25 16 17 24 30
19 30 -6 0 -21 -11 -34 -25z"/>
<path d="M3530 4845 c0 -20 -5 -25 -25 -25 -18 0 -25 -5 -25 -20 0 -15 7 -20
25 -20 20 0 25 -5 25 -25 0 -18 5 -25 20 -25 15 0 20 7 20 25 0 20 5 25 25 25
18 0 25 5 25 20 0 15 -7 20 -25 20 -20 0 -25 5 -25 25 0 18 -5 25 -20 25 -15
0 -20 -7 -20 -25z"/>
<path d="M8180 4845 c0 -18 -5 -25 -20 -25 -13 0 -20 -7 -20 -20 0 -13 7 -20
20 -20 15 0 20 -7 20 -25 0 -20 5 -25 25 -25 20 0 25 5 25 25 0 18 5 25 20 25
13 0 20 7 20 20 0 13 -7 20 -20 20 -15 0 -20 7 -20 25 0 20 -5 25 -25 25 -20
0 -25 -5 -25 -25z"/>
<path d="M12810 4845 c0 -20 -5 -25 -25 -25 -18 0 -25 -5 -25 -20 0 -15 7 -20
25 -20 20 0 25 -5 25 -25 0 -18 5 -25 20 -25 15 0 20 7 20 25 0 20 5 25 25 25
18 0 25 5 25 20 0 15 -7 20 -25 20 -20 0 -25 5 -25 25 0 18 -5 25 -20 25 -15
0 -20 -7 -20 -25z"/>
<path d="M6650 4835 c0 -20 -5 -25 -25 -25 -18 0 -25 -5 -25 -20 0 -15 7 -20
25 -20 20 0 25 -5 25 -25 0 -18 5 -25 20 -25 15 0 20 7 20 25 0 20 5 25 25 25
18 0 25 5 25 20 0 15 -7 20 -25 20 -20 0 -25 5 -25 25 0 18 -5 25 -20 25 -15
0 -20 -7 -20 -25z"/>
<path d="M11310 4835 c0 -20 -5 -25 -25 -25 -18 0 -25 -5 -25 -20 0 -15 7 -20
25 -20 20 0 25 -5 25 -25 0 -18 5 -25 20 -25 15 0 20 7 20 25 0 20 5 25 25 25
18 0 25 5 25 20 0 15 -7 20 -25 20 -20 0 -25 5 -25 25 0 18 -5 25 -20 25 -15
0 -20 -7 -20 -25z"/>
<path d="M15930 4835 c0 -20 -5 -25 -25 -25 -18 0 -25 -5 -25 -20 0 -15 7 -20
25 -20 20 0 25 -5 25 -25 0 -18 5 -25 20 -25 15 0 20 7 20 25 0 20 5 25 25 25
18 0 25 5 25 20 0 15 -7 20 -25 20 -20 0 -25 5 -25 25 0 18 -5 25 -20 25 -15
0 -20 -7 -20 -25z"/>
<path d="M4704 4675 c0 -99 2 -138 3 -87 2 51 2 132 0 180 -1 48 -3 6 -3 -93z"/>
<path d="M9350 4675 c0 -110 4 -175 10 -175 6 0 10 65 10 175 0 110 -4 175
-10 175 -6 0 -10 -65 -10 -175z"/>
<path d="M13984 4675 c0 -99 2 -138 3 -87 2 51 2 132 0 180 -1 48 -3 6 -3 -93z"/>
<path d="M5664 4829 c-6 -10 69 -18 79 -9 5 4 -10 10 -33 12 -23 2 -43 1 -46
-3z"/>
<path d="M5840 4830 c0 -5 20 -10 44 -10 25 0 48 5 51 10 4 6 -13 10 -44 10
-28 0 -51 -4 -51 -10z"/>
<path d="M10314 4828 c-3 -4 8 -8 25 -8 16 0 36 -3 45 -6 9 -3 16 -2 16 4 0
12 -79 21 -86 10z"/>
<path d="M10490 4830 c0 -5 20 -10 44 -10 25 0 48 5 51 10 4 6 -13 10 -44 10
-28 0 -51 -4 -51 -10z"/>
<path d="M14944 4829 c-6 -10 69 -18 79 -9 5 4 -10 10 -33 12 -23 2 -43 1 -46
-3z"/>
<path d="M15120 4830 c0 -5 20 -10 44 -10 25 0 48 5 51 10 4 6 -13 10 -44 10
-28 0 -51 -4 -51 -10z"/>
<path d="M3924 4815 c-9 -23 4 -47 23 -43 11 2 19 14 21 31 3 22 -1 27 -18 27
-11 0 -23 -7 -26 -15z"/>
<path d="M8573 4814 c-3 -8 2 -23 11 -32 15 -15 17 -15 32 0 21 21 11 48 -16
48 -11 0 -23 -7 -27 -16z"/>
<path d="M13202 4803 c2 -20 9 -28 23 -28 14 0 21 8 23 28 3 23 0 27 -23 27
-23 0 -26 -4 -23 -27z"/>
<path d="M5709 4770 c-19 -16 -29 -29 -24 -30 14 0 71 47 64 54 -3 3 -21 -8
-40 -24z"/>
<path d="M5830 4793 c0 -5 11 -20 25 -33 14 -13 25 -19 25 -13 0 5 -11 20 -25
33 -14 13 -25 19 -25 13z"/>
<path d="M10366 4774 c-15 -14 -26 -28 -23 -31 7 -6 66 38 66 50 1 13 -14 7
-43 -19z"/>
<path d="M14989 4770 c-19 -16 -29 -29 -24 -30 14 0 71 47 64 54 -3 3 -21 -8
-40 -24z"/>
<path d="M15110 4793 c0 -5 11 -20 25 -33 14 -13 25 -19 25 -13 0 5 -11 20
-25 33 -14 13 -25 19 -25 13z"/>
<path d="M10504 4764 c15 -14 31 -22 35 -19 7 8 -36 45 -53 45 -6 0 2 -12 18
-26z"/>
<path d="M5780 4758 c0 -13 5 -30 10 -38 7 -11 10 -5 10 23 0 20 -4 37 -10 37
-5 0 -10 -10 -10 -22z"/>
<path d="M10440 4748 c0 -21 5 -38 10 -38 13 0 13 40 0 60 -7 11 -10 5 -10
-22z"/>
<path d="M15060 4758 c0 -13 5 -30 10 -38 7 -11 10 -5 10 23 0 20 -4 37 -10
37 -5 0 -10 -10 -10 -22z"/>
<path d="M564 4755 c-4 -10 -1 -21 7 -26 20 -12 34 -5 34 17 0 24 -33 31 -41
9z"/>
<path d="M3070 4715 c-16 -19 -5 -47 17 -43 11 2 18 12 18 27 0 29 -17 37 -35
16z"/>
<path d="M7727 4723 c-4 -3 -7 -17 -7 -30 0 -16 6 -23 20 -23 25 0 36 25 20
45 -14 16 -23 19 -33 8z"/>
<path d="M12350 4715 c-16 -19 -5 -47 17 -43 22 4 29 43 9 51 -8 3 -20 -1 -26
-8z"/>
<path d="M2057 4704 c-4 -4 -7 -16 -7 -26 0 -20 25 -25 36 -7 8 13 -19 43 -29
33z"/>
<path d="M3427 4703 c-12 -11 -8 -853 3 -853 7 0 10 150 10 430 0 237 -1 430
-3 430 -2 0 -7 -3 -10 -7z"/>
<path d="M8080 4281 c0 -281 3 -431 10 -431 7 0 10 148 10 424 0 273 -4 427
-10 431 -7 4 -10 -140 -10 -424z"/>
<path d="M12707 4703 c-12 -11 -8 -853 3 -853 7 0 10 150 10 430 0 237 -1 430
-3 430 -2 0 -7 -3 -10 -7z"/>
<path d="M1250 4650 c0 -15 -7 -20 -25 -20 -18 0 -25 -5 -25 -20 0 -15 7 -20
25 -20 20 0 25 -5 25 -25 0 -33 37 -35 42 -2 2 14 11 23 26 25 32 5 30 42 -3
42 -18 0 -25 5 -25 20 0 13 -7 20 -20 20 -13 0 -20 -7 -20 -20z"/>
<path d="M5170 4630 c0 -15 -7 -20 -25 -20 -20 0 -25 -5 -25 -25 0 -20 5 -25
25 -25 18 0 25 -5 25 -20 0 -13 7 -20 20 -20 13 0 20 7 20 20 0 15 7 20 25 20
20 0 25 5 25 25 0 20 -5 25 -25 25 -18 0 -25 5 -25 20 0 13 -7 20 -20 20 -13
0 -20 -7 -20 -20z"/>
<path d="M9820 4630 c0 -13 -7 -20 -20 -20 -15 0 -20 -7 -20 -25 0 -18 5 -25
20 -25 13 0 20 -7 20 -20 0 -13 7 -20 20 -20 13 0 20 7 20 20 0 15 7 20 25 20
20 0 25 5 25 25 0 20 -5 25 -25 25 -18 0 -25 5 -25 20 0 13 -7 20 -20 20 -13
0 -20 -7 -20 -20z"/>
<path d="M14450 4630 c0 -15 -7 -20 -25 -20 -20 0 -25 -5 -25 -25 0 -20 5 -25
25 -25 18 0 25 -5 25 -20 0 -13 7 -20 20 -20 13 0 20 7 20 20 0 15 7 20 25 20
20 0 25 5 25 25 0 20 -5 25 -25 25 -18 0 -25 5 -25 20 0 13 -7 20 -20 20 -13
0 -20 -7 -20 -20z"/>
<path d="M17670 4290 c0 -233 4 -360 10 -360 6 0 10 127 10 360 0 233 -4 360
-10 360 -6 0 -10 -127 -10 -360z"/>
<path d="M5590 4376 c0 -104 4 -166 10 -166 6 0 10 60 10 159 0 96 -4 162 -10
166 -7 4 -10 -52 -10 -159z"/>
<path d="M10250 4376 c0 -104 4 -166 10 -166 6 0 10 60 10 159 0 96 -4 162
-10 166 -7 4 -10 -52 -10 -159z"/>
<path d="M14870 4376 c0 -104 4 -166 10 -166 6 0 10 60 10 159 0 96 -4 162
-10 166 -7 4 -10 -52 -10 -159z"/>
<path d="M3970 4466 c0 -25 5 -46 10 -46 6 0 10 18 10 39 0 22 -4 43 -10 46
-6 4 -10 -12 -10 -39z"/>
<path d="M8627 4503 c-10 -10 -8 -56 3 -73 7 -11 10 -2 10 33 0 48 -1 52 -13
40z"/>
<path d="M13250 4466 c0 -25 5 -46 10 -46 6 0 10 18 10 39 0 22 -4 43 -10 46
-6 4 -10 -12 -10 -39z"/>
<path d="M960 4121 c0 -247 4 -381 10 -381 6 0 10 131 10 374 0 239 -4 377
-10 381 -7 4 -10 -123 -10 -374z"/>
<path d="M17010 4480 c0 -15 -7 -20 -25 -20 -18 0 -25 -5 -25 -20 0 -15 7 -20
25 -20 20 0 25 -5 25 -25 0 -18 5 -25 20 -25 15 0 20 7 20 25 0 20 5 25 25 25
18 0 25 5 25 20 0 15 -7 20 -25 20 -18 0 -25 5 -25 20 0 13 -7 20 -20 20 -13
0 -20 -7 -20 -20z"/>
<path d="M60 4295 c0 -117 4 -185 10 -185 6 0 10 68 10 185 0 117 -4 185 -10
185 -6 0 -10 -68 -10 -185z"/>
<path d="M4035 4450 c-16 -17 -24 -30 -19 -30 13 0 59 48 52 55 -2 3 -17 -9
-33 -25z"/>
<path d="M8695 4450 c-16 -16 -26 -32 -24 -35 3 -3 18 9 34 25 16 16 26 32 24
35 -3 3 -18 -9 -34 -25z"/>
<path d="M13315 4450 c-16 -17 -24 -30 -19 -30 13 0 59 48 52 55 -2 3 -17 -9
-33 -25z"/>
<path d="M18940 4295 c0 -117 4 -185 10 -185 6 0 10 68 10 185 0 117 -4 185
-10 185 -6 0 -10 -68 -10 -185z"/>
<path d="M3890 4462 c0 -5 11 -19 25 -32 29 -27 32 -21 9 15 -16 24 -34 33
-34 17z"/>
<path d="M8562 4440 c12 -16 26 -30 30 -30 10 0 2 16 -20 43 -25 29 -34 19
-10 -13z"/>
<path d="M13170 4462 c0 -5 11 -19 25 -32 29 -27 33 -15 6 18 -20 23 -31 28
-31 14z"/>
<path d="M3860 4380 c0 -5 19 -10 43 -9 36 1 38 2 17 9 -36 12 -60 12 -60 0z"/>
<path d="M4038 4378 c8 -8 23 -8 54 -1 l43 11 -54 1 c-42 1 -52 -2 -43 -11z"/>
<path d="M8510 4380 c0 -5 21 -10 48 -9 38 1 42 2 22 9 -36 12 -70 12 -70 0z"/>
<path d="M8690 4380 c0 -12 44 -12 80 0 20 6 14 8 -27 9 -29 1 -53 -3 -53 -9z"/>
<path d="M13140 4380 c0 -5 19 -10 43 -9 36 1 38 2 17 9 -36 12 -60 12 -60 0z"/>
<path d="M13318 4378 c8 -8 23 -8 54 -1 l43 11 -54 1 c-42 1 -52 -2 -43 -11z"/>
<path d="M3905 4325 c-16 -13 -26 -27 -23 -31 7 -7 67 36 67 49 1 13 -13 7
-44 -18z"/>
<path d="M4026 4342 c-3 -5 8 -19 24 -31 17 -12 30 -18 30 -13 0 15 -48 54
-54 44z"/>
<path d="M8558 4321 c-18 -17 -28 -31 -23 -31 16 0 71 47 63 55 -3 3 -21 -7
-40 -24z"/>
<path d="M8680 4342 c0 -14 38 -44 50 -40 6 2 -3 14 -19 26 -17 12 -31 19 -31
14z"/>
<path d="M13185 4325 c-16 -13 -27 -26 -24 -29 6 -6 69 36 69 47 0 13 -14 7
-45 -18z"/>
<path d="M13306 4342 c-3 -5 8 -19 24 -31 17 -12 30 -18 30 -13 0 15 -48 54
-54 44z"/>
<path d="M13260 4301 c0 -23 5 -41 10 -41 6 0 10 15 10 34 0 19 -4 38 -10 41
-6 4 -10 -10 -10 -34z"/>
<path d="M3980 4295 c0 -19 5 -35 10 -35 6 0 10 16 10 35 0 19 -4 35 -10 35
-5 0 -10 -16 -10 -35z"/>
<path d="M8631 4318 c1 -7 5 -24 9 -38 7 -22 8 -21 9 13 1 20 -3 37 -9 37 -5
0 -10 -6 -9 -12z"/>
<path d="M6697 4314 c-12 -13 -7 -52 7 -57 21 -8 42 21 30 41 -12 19 -27 25
-37 16z"/>
<path d="M11352 4308 c-16 -16 -15 -33 1 -46 18 -16 39 1 35 28 -4 28 -19 35
-36 18z"/>
<path d="M15977 4314 c-12 -13 -7 -52 7 -57 21 -8 42 21 30 41 -12 19 -27 25
-37 16z"/>
<path d="M3190 4260 c-8 -5 -25 -10 -38 -10 -33 0 -26 -40 11 -60 27 -14 29
-14 48 9 32 39 16 85 -21 61z"/>
<path d="M7845 4261 c-6 -5 -21 -11 -35 -13 -33 -4 -32 -26 2 -51 27 -20 28
-20 48 -2 13 12 20 28 18 44 -3 27 -18 37 -33 22z"/>
<path d="M12470 4260 c-8 -5 -25 -10 -38 -10 -33 0 -26 -40 11 -60 27 -14 29
-14 48 9 32 39 16 85 -21 61z"/>
<path d="M1475 4170 c-4 -7 -3 -16 3 -22 14 -14 45 -2 40 15 -6 16 -34 21 -43
7z"/>
<path d="M5590 3735 c0 -277 3 -425 10 -425 7 0 10 148 10 425 0 277 -3 425
-10 425 -7 0 -10 -148 -10 -425z"/>
<path d="M10250 3735 c0 -277 3 -425 10 -425 7 0 10 148 10 425 0 277 -3 425
-10 425 -7 0 -10 -148 -10 -425z"/>
<path d="M14870 3735 c0 -277 3 -425 10 -425 7 0 10 148 10 425 0 277 -3 425
-10 425 -7 0 -10 -148 -10 -425z"/>
<path d="M1140 4090 c0 -22 5 -40 10 -40 6 0 10 18 10 40 0 22 -4 40 -10 40
-5 0 -10 -18 -10 -40z"/>
<path d="M1206 4081 c-16 -17 -28 -33 -25 -35 8 -8 61 42 58 53 -3 7 -17 -1
-33 -18z"/>
<path d="M1060 4093 c1 -14 40 -56 46 -50 3 3 -2 17 -13 31 -18 25 -33 34 -33
19z"/>
<path d="M18602 4093 c-27 -4 -33 -8 -30 -26 2 -12 16 -28 31 -37 27 -14 29
-14 48 9 10 13 19 32 19 42 0 19 -2 20 -68 12z"/>
<path d="M6135 4081 c-3 -6 -16 -9 -28 -6 -12 3 -29 1 -37 -5 -19 -12 -5 -38
33 -60 24 -13 28 -13 52 10 15 14 25 33 23 45 -3 22 -32 33 -43 16z"/>
<path d="M10797 4083 c-5 -4 -22 -7 -40 -8 -25 0 -33 -5 -35 -22 -3 -18 5 -27
33 -40 l37 -18 25 29 c13 15 23 36 21 45 -3 17 -29 26 -41 14z"/>
<path d="M15415 4081 c-3 -6 -16 -9 -28 -6 -12 3 -29 1 -37 -5 -19 -12 -5 -38
33 -60 24 -13 28 -13 52 10 15 14 25 33 23 45 -3 22 -32 33 -43 16z"/>
<path d="M17780 4025 c0 -20 -5 -25 -25 -25 -18 0 -25 -5 -25 -20 0 -15 7 -20
25 -20 20 0 25 -5 25 -25 0 -18 5 -25 20 -25 15 0 20 7 20 25 0 20 5 25 25 25
18 0 25 5 25 20 0 15 -7 20 -25 20 -20 0 -25 5 -25 25 0 18 -5 25 -20 25 -15
0 -20 -7 -20 -25z"/>
<path d="M2020 4015 c0 -20 -5 -25 -25 -25 -18 0 -25 -5 -25 -20 0 -15 7 -20
25 -20 20 0 25 -5 25 -25 0 -18 5 -25 20 -25 15 0 20 7 20 25 0 20 5 25 25 25
18 0 25 5 25 20 0 15 -7 20 -25 20 -20 0 -25 5 -25 25 0 18 -5 25 -20 25 -15
0 -20 -7 -20 -25z"/>
<path d="M60 3855 c0 -110 4 -175 10 -175 6 0 10 65 10 175 0 110 -4 175 -10
175 -6 0 -10 -65 -10 -175z"/>
<path d="M18940 3855 c0 -110 4 -175 10 -175 6 0 10 65 10 175 0 110 -4 175
-10 175 -6 0 -10 -65 -10 -175z"/>
<path d="M1030 4008 c0 -5 11 -8 24 -8 13 0 31 -3 40 -6 9 -3 16 -2 16 4 0 5
-18 12 -40 14 -22 2 -40 0 -40 -4z"/>
<path d="M1200 4010 c0 -5 23 -10 50 -10 28 0 50 5 50 10 0 6 -22 10 -50 10
-27 0 -50 -4 -50 -10z"/>
<path d="M6701 4003 c-66 -33 -77 -122 -26 -210 30 -50 101 -114 178 -159 l59
-34 47 26 c83 45 159 111 191 166 62 110 29 214 -72 225 -62 7 -91 -1 -131
-37 l-34 -30 -19 22 c-43 47 -131 62 -193 31z m239 -128 c0 -21 5 -25 30 -25
27 0 30 -3 30 -30 0 -27 -3 -30 -30 -30 -27 0 -30 -3 -30 -30 0 -27 -3 -30
-30 -30 -27 0 -30 3 -30 30 0 25 -4 30 -25 30 -21 0 -25 5 -25 30 0 25 4 30
25 30 20 0 25 5 25 25 0 21 5 25 30 25 25 0 30 -4 30 -25z"/>
<path d="M11353 4000 c-41 -24 -53 -48 -53 -102 0 -94 75 -188 215 -268 l55
-31 62 37 c164 99 242 230 193 324 -39 75 -165 82 -236 13 -23 -21 -28 -22
-35 -10 -31 53 -142 74 -201 37z m247 -124 c0 -19 6 -25 28 -28 21 -2 28 -9
30 -30 3 -25 0 -28 -27 -28 -28 0 -31 -3 -31 -30 0 -27 -3 -30 -30 -30 -27 0
-30 3 -30 30 0 27 -3 30 -30 30 -27 0 -30 3 -30 30 0 27 3 30 30 30 25 0 30 4
30 25 0 21 5 25 30 25 25 0 30 -4 30 -24z"/>
<path d="M15981 4003 c-66 -33 -77 -122 -26 -210 30 -50 101 -114 178 -159
l59 -34 47 26 c139 75 221 175 221 269 0 30 -6 60 -16 73 -47 68 -168 70 -228
3 l-19 -21 -26 24 c-50 48 -128 60 -190 29z m239 -128 c0 -21 5 -25 30 -25 27
0 30 -3 30 -30 0 -27 -3 -30 -30 -30 -27 0 -30 -3 -30 -30 0 -27 -3 -30 -30
-30 -27 0 -30 3 -30 30 0 25 -4 30 -25 30 -21 0 -25 5 -25 30 0 25 4 30 25 30
20 0 25 5 25 25 0 21 5 25 30 25 25 0 30 -4 30 -25z"/>
<path d="M18167 3997 c-3 -9 0 -22 6 -32 17 -22 49 -9 45 19 -4 25 -43 34 -51
13z"/>
<path d="M1076 3954 c-15 -14 -26 -27 -23 -30 7 -7 67 37 67 48 0 14 -14 8
-44 -18z"/>
<path d="M1215 3945 c16 -13 31 -22 34 -20 8 8 -32 45 -48 45 -11 -1 -7 -8 14
-25z"/>
<path d="M1150 3925 c0 -19 5 -35 10 -35 6 0 10 16 10 35 0 19 -4 35 -10 35
-5 0 -10 -16 -10 -35z"/>
<path d="M5427 3897 c-8 -21 8 -39 29 -35 27 5 25 42 -2 46 -12 2 -24 -3 -27
-11z"/>
<path d="M10084 3895 c-8 -19 3 -35 26 -35 19 0 30 17 23 38 -6 17 -42 15 -49
-3z"/>
<path d="M14707 3897 c-8 -21 8 -39 29 -35 27 5 25 42 -2 46 -12 2 -24 -3 -27
-11z"/>
<path d="M17314 3895 c-9 -21 3 -45 21 -45 21 0 30 27 15 45 -16 19 -29 19
-36 0z"/>
<path d="M17670 3455 c0 -277 3 -425 10 -425 7 0 10 148 10 425 0 277 -3 425
-10 425 -7 0 -10 -148 -10 -425z"/>
<path d="M540 3810 c0 -15 -7 -20 -25 -20 -20 0 -25 -5 -25 -25 0 -20 5 -25
25 -25 18 0 25 -5 25 -20 0 -13 7 -20 20 -20 13 0 20 7 20 20 0 13 7 20 20 20
15 0 20 7 20 25 0 18 -5 25 -20 25 -13 0 -20 7 -20 20 0 13 -7 20 -20 20 -13
0 -20 -7 -20 -20z"/>
<path d="M3427 3823 c-11 -11 -8 -163 3 -163 6 0 10 35 10 85 0 85 -1 91 -13
78z"/>
<path d="M8080 3746 c0 -51 4 -86 10 -86 6 0 10 33 10 79 0 44 -4 83 -10 86
-6 4 -10 -25 -10 -79z"/>
<path d="M12707 3823 c-11 -11 -8 -163 3 -163 6 0 10 35 10 85 0 85 -1 91 -13
78z"/>
<path d="M960 3556 c0 -104 4 -166 10 -166 6 0 10 60 10 159 0 96 -4 162 -10
166 -7 4 -10 -52 -10 -159z"/>
<path d="M3484 3665 c-27 -14 -62 -37 -77 -50 l-28 -25 43 -55 c23 -30 46 -55
49 -55 12 0 99 71 109 90 5 10 10 28 10 40 0 13 4 19 11 14 6 -3 9 -17 6 -30
-2 -13 0 -21 4 -18 29 18 -22 114 -60 114 -9 0 -39 -11 -67 -25z"/>
<path d="M8145 3668 c-47 -25 -105 -67 -105 -77 0 -4 20 -33 44 -64 l44 -56
62 58 c50 47 61 63 55 80 -7 22 10 30 18 9 3 -8 6 -6 6 5 1 23 -43 67 -66 67
-10 -1 -36 -10 -58 -22z"/>
<path d="M12764 3665 c-27 -14 -62 -37 -77 -50 l-28 -25 43 -55 c23 -30 46
-55 49 -55 12 0 107 80 113 96 3 9 6 25 6 35 0 12 4 17 11 13 6 -3 9 -17 6
-30 -2 -13 0 -21 4 -18 29 18 -22 114 -60 114 -9 0 -39 -11 -67 -25z"/>
<path d="M18223 3645 c0 -27 2 -38 4 -22 2 15 2 37 0 50 -2 12 -4 0 -4 -28z"/>
<path d="M2559 3653 c-67 -35 -105 -88 -114 -159 -8 -56 1 -114 16 -114 5 0 9
11 9 24 0 28 34 109 53 124 7 6 31 15 52 20 22 5 47 13 56 17 10 3 20 2 24 -4
3 -6 14 -11 23 -11 36 -1 112 -106 112 -156 l1 -29 15 29 c14 24 14 40 4 112
-7 46 -18 88 -26 95 -8 6 -14 17 -14 23 0 19 -77 56 -118 56 -22 0 -61 -12
-93 -27z"/>
<path d="M15549 3644 c-51 -15 -123 -84 -141 -134 -6 -18 -26 -39 -53 -55 -59
-34 -96 -84 -102 -137 -8 -78 -11 -84 -53 -103 -23 -10 -54 -34 -70 -52 -37
-42 -40 -95 -9 -155 l21 -42 -26 -20 c-14 -12 -37 -30 -51 -41 -15 -12 -27
-34 -31 -55 -4 -29 -3 -32 6 -17 11 17 14 14 35 -30 12 -27 37 -66 55 -87 35
-39 105 -81 114 -68 3 5 -10 14 -29 21 -44 16 -107 87 -130 148 l-18 47 59 53
c72 65 183 141 223 153 16 4 47 6 69 3 l39 -5 -33 -49 c-18 -27 -35 -62 -39
-79 -5 -22 -17 -36 -41 -47 -54 -26 -74 -80 -74 -194 1 -52 7 -111 14 -131 13
-35 12 -38 -5 -38 -12 0 -24 11 -30 28 -7 16 -13 22 -16 14 -7 -18 26 -52 49
-52 10 0 27 -5 37 -12 15 -9 25 -9 45 0 26 11 36 32 16 32 -5 0 -10 -4 -10 -9
0 -13 -27 -21 -45 -15 -12 5 -9 13 15 41 38 43 95 156 104 206 8 46 -8 102
-35 120 -18 13 -18 16 -4 57 8 23 25 59 37 78 l21 35 74 -147 c40 -80 75 -146
77 -146 2 0 43 48 91 106 84 101 89 105 99 83 5 -13 9 -82 9 -153 1 -111 -2
-130 -17 -142 -25 -18 -17 -58 12 -62 25 -4 38 18 27 46 -4 9 -7 76 -6 147 1
72 -3 148 -8 170 -9 34 -7 43 11 62 19 20 22 21 67 8 63 -19 123 -88 158 -182
20 -53 30 -69 36 -58 5 9 3 31 -4 52 -11 33 -10 38 7 48 10 5 36 27 58 48 35
34 38 41 33 75 -4 26 -17 46 -41 67 -34 29 -35 31 -24 71 21 77 -13 127 -119
175 -57 25 -62 31 -68 66 -12 68 -27 104 -58 139 -29 34 -93 74 -119 74 -7 0
-33 14 -57 30 -49 33 -81 36 -152 14z m4 -665 c58 -123 91 -126 176 -18 38 47
58 59 55 33 -1 -10 -167 -215 -170 -211 -1 1 -31 64 -67 140 -52 108 -62 137
-49 137 11 0 30 -28 55 -81z m267 46 c-7 -8 -14 -15 -15 -15 -2 0 -5 7 -9 15
-4 10 1 15 16 15 17 0 18 -2 8 -15z m-416 -161 c9 -8 19 -27 22 -41 13 -52
-36 -191 -92 -259 -20 -24 -25 -27 -33 -14 -28 42 -25 223 4 279 25 50 69 65
99 35z m421 -233 c7 -12 -12 -24 -25 -16 -11 7 -4 25 10 25 5 0 11 -4 15 -9z"/>
<path d="M15351 2761 c-12 -22 -21 -48 -20 -58 0 -10 11 6 25 36 29 64 25 81
-5 22z"/>
<path d="M18285 3630 c-16 -16 -26 -32 -24 -35 3 -3 18 9 34 25 16 16 26 32
24 35 -3 3 -18 -9 -34 -25z"/>
<path d="M18140 3645 c1 -18 38 -60 46 -52 4 4 -4 20 -19 35 -15 14 -27 22
-27 17z"/>
<path d="M4173 3584 c-3 -8 2 -23 11 -32 14 -15 18 -15 31 -1 9 9 13 23 9 32
-8 21 -43 22 -51 1z"/>
<path d="M8837 3594 c-12 -12 -8 -42 6 -47 21 -8 39 8 35 29 -3 19 -29 30 -41
18z"/>
<path d="M13453 3584 c-3 -8 2 -23 11 -32 14 -15 18 -15 31 -1 9 9 13 23 9 32
-8 21 -43 22 -51 1z"/>
<path d="M8236 3551 l-30 -36 34 32 c19 18 32 34 29 36 -2 2 -17 -12 -33 -32z"/>
<path d="M18105 3560 c-4 -6 12 -10 42 -9 39 1 43 3 23 9 -36 11 -58 11 -65 0z"/>
<path d="M18280 3560 c0 -12 44 -12 80 0 20 6 14 8 -27 9 -29 1 -53 -3 -53 -9z"/>
<path d="M18155 3505 c-17 -13 -28 -26 -25 -29 3 -3 19 6 35 19 17 13 28 26
25 29 -3 3 -19 -6 -35 -19z"/>
<path d="M18230 3482 c0 -23 5 -42 10 -42 7 0 8 14 4 38 -9 51 -14 53 -14 4z"/>
<path d="M18285 3500 c10 -11 25 -20 34 -20 12 1 10 5 -8 20 -30 26 -49 26
-26 0z"/>
<path d="M2062 3488 c-16 -16 -15 -33 2 -47 21 -18 50 14 36 40 -12 22 -21 24
-38 7z"/>
<path d="M2553 3453 c-7 -2 -13 -9 -13 -14 0 -6 8 -6 19 1 11 5 28 7 38 4 15
-5 15 -4 3 5 -16 11 -27 12 -47 4z"/>
<path d="M2650 3449 c-12 -9 -12 -10 3 -5 10 3 27 1 38 -4 11 -6 19 -7 19 -1
0 8 -23 21 -38 21 -4 0 -14 -5 -22 -11z"/>
<path d="M17435 3440 c-3 -5 -17 -10 -30 -10 -37 0 -41 -20 -11 -47 35 -30 48
-29 68 5 12 19 14 32 7 45 -11 19 -25 22 -34 7z"/>
<path d="M2565 3401 c-3 -5 -1 -12 5 -16 5 -3 10 1 10 9 0 18 -6 21 -15 7z"/>
<path d="M2617 3403 c-10 -10 -8 -61 2 -68 5 -3 12 -1 16 5 3 5 1 10 -6 10 -7
0 -9 10 -5 30 6 31 4 35 -7 23z"/>
<path d="M2670 3400 c0 -5 5 -10 10 -10 6 0 10 5 10 10 0 6 -4 10 -10 10 -5 0
-10 -4 -10 -10z"/>
<path d="M2132 3377 c-12 -14 -29 -256 -18 -246 4 3 11 57 16 120 6 62 15 116
21 120 7 4 8 9 1 13 -5 3 -15 0 -20 -7z"/>
<path d="M960 2915 c0 -277 3 -425 10 -425 7 0 10 148 10 425 0 277 -3 425
-10 425 -7 0 -10 -148 -10 -425z"/>
<path d="M6100 3295 c0 -20 -5 -25 -25 -25 -18 0 -25 -5 -25 -20 0 -15 7 -20
25 -20 20 0 25 -5 25 -25 0 -18 5 -25 20 -25 15 0 20 7 20 25 0 20 5 25 25 25
18 0 25 5 25 20 0 15 -7 20 -25 20 -20 0 -25 5 -25 25 0 18 -5 25 -20 25 -15
0 -20 -7 -20 -25z"/>
<path d="M10760 3295 c0 -20 -5 -25 -25 -25 -18 0 -25 -5 -25 -20 0 -15 7 -20
25 -20 20 0 25 -5 25 -25 0 -18 5 -25 20 -25 15 0 20 7 20 25 0 18 5 25 20 25
13 0 20 7 20 20 0 13 -7 20 -20 20 -15 0 -20 7 -20 25 0 18 -5 25 -20 25 -15
0 -20 -7 -20 -25z"/>
<path d="M2570 3301 c0 -14 41 -41 61 -41 15 0 49 30 49 43 0 4 -25 7 -55 7
-30 0 -55 -4 -55 -9z m90 -10 c0 -15 -30 -21 -51 -11 -27 15 -24 20 16 20 19
0 35 -4 35 -9z"/>
<path d="M2159 3298 c-8 -34 -23 -178 -18 -178 8 0 11 14 25 108 3 20 7 45 10
55 3 9 1 17 -5 17 -6 0 -11 -1 -12 -2z"/>
<path d="M1506 3261 c-4 -6 -20 -8 -35 -5 -53 11 -53 -44 0 -66 27 -12 32 -10
55 11 14 13 24 32 22 44 -3 21 -32 33 -42 16z"/>
<path d="M2600 3246 c0 -10 28 -13 41 -5 10 6 7 9 -13 9 -16 0 -28 -2 -28 -4z"/>
<path d="M3441 3220 c-81 -19 -125 -83 -118 -172 6 -74 12 -82 43 -62 22 15
26 15 49 0 18 -12 43 -16 92 -14 66 3 68 2 83 -27 9 -16 29 -50 44 -75 28 -43
30 -44 39 -22 11 25 37 30 37 7 0 -23 -33 -85 -45 -85 -6 0 -33 38 -60 85
l-50 84 -70 1 c-42 0 -76 5 -83 12 -9 10 -16 9 -28 -4 -15 -15 -15 -19 5 -51
36 -59 153 -152 257 -205 l40 -21 70 39 c38 21 95 59 127 85 65 51 123 125
107 135 -16 10 -68 0 -81 -16 -6 -8 -20 -14 -29 -14 -14 0 -22 15 -34 69 -29
126 -28 126 -71 18 -22 -55 -44 -97 -52 -97 -20 0 -16 18 27 129 54 138 59
147 74 130 13 -15 41 -101 52 -161 6 -37 17 -48 29 -28 3 6 30 10 60 10 30 0
57 5 61 11 3 6 8 39 11 73 3 49 0 67 -16 93 -60 95 -205 106 -296 22 l-42 -39
-29 31 c-16 17 -40 37 -54 44 -34 17 -108 25 -149 15z"/>
<path d="M8105 3220 c-103 -24 -147 -94 -124 -199 6 -28 13 -51 17 -51 3 0 14
8 24 17 18 16 21 16 49 -1 24 -14 42 -16 94 -11 l64 7 25 -48 c14 -27 34 -62
44 -78 20 -28 20 -28 31 -7 12 22 41 29 41 11 0 -17 -40 -90 -49 -90 -9 0 -65
83 -95 140 l-18 35 -63 -3 c-35 -2 -72 1 -81 6 -12 7 -24 6 -35 -1 -15 -10
-16 -14 -4 -37 22 -43 136 -142 223 -194 l82 -49 80 49 c45 27 101 65 126 86
48 39 104 104 104 119 0 19 -55 13 -93 -9 -35 -21 -39 -15 -63 83 -9 38 -20
73 -23 77 -4 4 -22 -33 -40 -83 -31 -82 -52 -112 -67 -96 -6 6 83 246 98 262
14 16 26 -7 52 -104 14 -51 28 -96 30 -99 3 -3 12 1 20 7 8 7 25 12 38 11 70
-6 76 -3 87 51 22 100 -24 178 -117 197 -78 17 -168 -10 -210 -62 l-19 -25
-24 25 c-48 51 -139 80 -204 64z"/>
<path d="M12721 3220 c-81 -19 -125 -83 -118 -172 6 -74 12 -82 43 -62 22 15
26 15 49 0 18 -12 43 -16 92 -14 66 3 68 2 83 -27 9 -16 29 -50 44 -75 28 -43
30 -44 39 -22 11 25 37 30 37 7 0 -23 -33 -85 -45 -85 -6 0 -34 38 -61 85
l-49 84 -71 1 c-41 0 -75 5 -82 12 -9 10 -16 9 -28 -4 -15 -15 -15 -19 5 -51
36 -59 133 -137 246 -199 l49 -27 56 30 c123 65 281 210 250 229 -16 10 -68 0
-81 -16 -6 -8 -20 -14 -29 -14 -14 0 -22 15 -34 69 -29 126 -28 126 -71 18
-22 -55 -44 -97 -52 -97 -20 0 -17 15 29 135 53 140 62 152 84 100 8 -21 23
-68 31 -104 19 -77 20 -78 35 -63 7 7 36 12 64 12 29 0 56 5 60 11 3 6 9 39
11 73 4 52 2 66 -19 95 -34 51 -80 74 -147 74 -68 0 -117 -19 -156 -61 l-30
-32 -35 34 c-19 19 -44 38 -55 44 -30 15 -106 21 -144 12z"/>
<path d="M2345 3185 c-16 -9 -37 -24 -47 -35 -16 -19 -17 -19 -50 11 -41 39
-50 21 -19 -40 20 -39 22 -39 47 -26 15 8 59 19 98 25 155 25 173 35 117 64
-38 20 -107 20 -146 1z"/>
<path d="M2057 3179 c-48 -28 -60 -115 -26 -186 20 -41 103 -133 121 -133 20
0 7 109 -22 180 -17 41 -33 91 -36 112 -7 41 -10 43 -37 27z"/>
<path d="M6746 3121 c-4 -6 -20 -8 -35 -5 -53 11 -53 -44 0 -66 27 -12 32 -10
55 11 14 13 24 32 22 44 -3 21 -32 33 -42 16z"/>
<path d="M11400 3120 c-8 -5 -23 -7 -33 -4 -27 9 -49 -14 -36 -38 16 -29 52
-42 78 -28 27 14 42 50 29 68 -12 14 -18 15 -38 2z"/>
<path d="M794 3075 c-4 -9 -2 -21 4 -27 16 -16 47 -5 47 17 0 26 -42 34 -51
10z"/>
<path d="M10780 3035 c-14 -16 -5 -35 16 -35 15 0 20 35 5 44 -5 3 -14 -1 -21
-9z"/>
<path d="M6122 3023 c2 -10 10 -18 18 -18 8 0 16 8 18 18 2 12 -3 17 -18 17
-15 0 -20 -5 -18 -17z"/>
<path d="M17670 2925 c0 -50 4 -85 10 -85 6 0 10 35 10 85 0 50 -4 85 -10 85
-6 0 -10 -35 -10 -85z"/>
<path d="M2367 2919 c4 -13 8 -18 11 -10 2 7 -1 18 -6 23 -8 8 -9 4 -5 -13z"/>
<path d="M6263 2905 c-84 -42 -125 -109 -125 -205 0 -70 19 -117 67 -163 109
-106 279 -84 360 47 26 42 30 59 30 115 -1 178 -174 285 -332 206z m172 -142
c58 -59 15 -153 -70 -153 -55 0 -90 34 -90 90 0 88 97 125 160 63z"/>
<path d="M10925 2911 c-146 -66 -181 -258 -66 -372 146 -147 391 -46 391 161
0 131 -99 230 -230 230 -32 0 -72 -8 -95 -19z m131 -126 c49 -20 70 -71 50
-119 -17 -40 -42 -56 -89 -56 -95 0 -122 137 -34 175 40 18 32 18 73 0z"/>
<path d="M2942 2794 c-1 -72 1 -152 4 -178 l7 -46 43 0 c25 0 43 -4 41 -10 -1
-6 23 -21 53 -33 36 -15 62 -33 77 -56 18 -27 24 -30 29 -17 12 31 -47 77
-123 95 -36 8 -36 9 -8 10 33 1 108 -30 140 -57 19 -16 19 -16 5 2 -24 31
-109 65 -182 72 -37 4 -69 9 -69 13 -1 3 -5 80 -9 171 l-6 165 -2 -131z"/>
<path d="M2384 2871 c1 -7 -16 -31 -36 -54 -21 -22 -38 -44 -38 -49 0 -17 16
-6 39 27 15 23 37 39 62 47 45 13 53 30 10 22 -20 -4 -31 -2 -34 7 -3 12 -4
12 -3 0z"/>
<path d="M17730 2845 c-25 -13 -58 -35 -74 -48 l-30 -24 45 -61 45 -60 39 33
c41 35 62 45 49 23 -4 -7 7 0 24 16 18 16 34 38 37 47 8 23 -19 75 -44 89 -28
14 -40 12 -91 -15z m128 -57 c2 -9 -9 -29 -24 -44 l-26 -29 17 29 c9 15 14 37
12 48 -4 12 -1 18 6 15 7 -2 13 -11 15 -19z"/>
<path d="M2395 2785 c-22 -13 -33 -25 -25 -25 9 0 26 7 39 16 22 16 23 16 12
-4 -6 -11 -11 -29 -11 -39 1 -13 5 -11 16 10 8 15 30 37 47 47 l32 20 -35 0
c-20 0 -53 -11 -75 -25z"/>
<path d="M15003 2763 c-89 -107 -103 -133 -103 -186 0 -95 54 -168 271 -368
99 -91 99 -91 124 -75 14 10 31 28 37 42 13 28 25 30 50 7 22 -20 36 -9 20 17
-10 17 -8 19 21 22 44 4 41 27 -8 56 l-40 23 38 -7 c24 -4 37 -2 37 5 0 15
-59 44 -76 37 -8 -3 -14 0 -14 7 -1 18 -29 -22 -51 -70 -10 -24 -23 -43 -28
-43 -13 0 -132 170 -171 245 -42 79 -40 108 9 143 l40 29 -34 34 c-19 19 -45
56 -58 82 l-24 48 -40 -48z"/>
<path d="M2482 2759 c-17 -12 -35 -32 -38 -45 -9 -34 3 -43 15 -12 5 14 24 37
43 52 39 31 27 34 -20 5z"/>
<path d="M18427 2774 c-12 -12 -8 -42 6 -47 21 -8 39 8 35 29 -3 19 -29 30
-41 18z"/>
<path d="M15887 2688 c2 -46 9 -121 15 -168 6 -47 14 -116 18 -155 4 -38 12
-92 18 -120 6 -27 13 -73 17 -102 l5 -51 -48 -16 c-70 -24 -204 -37 -297 -31
-92 7 -290 34 -313 42 -9 4 -13 2 -9 -5 4 -6 21 -14 38 -17 24 -5 30 -11 26
-26 -6 -23 2 -25 18 -2 11 14 21 15 102 5 49 -7 106 -12 126 -12 33 0 37 -3
37 -25 0 -14 5 -25 10 -25 6 0 10 11 10 25 0 24 3 25 58 25 32 0 85 5 117 11
51 9 61 9 71 -5 15 -22 23 -20 17 4 -4 14 1 22 18 28 22 9 24 5 39 -52 23 -84
99 -279 113 -288 16 -10 112 -38 131 -38 25 0 7 27 -27 41 -29 11 -30 13 -9
16 12 3 47 -7 78 -21 31 -14 63 -26 70 -26 21 0 17 17 -8 36 l-23 16 28 -6
c21 -5 28 -3 25 5 -9 28 -57 51 -128 60 -41 6 -82 15 -91 20 -21 11 -26 52
-34 269 -3 85 -13 184 -22 220 -8 36 -16 106 -17 155 l-2 90 -34 -3 c-43 -5
-120 7 -120 17 0 5 35 10 78 13 45 3 91 12 110 22 44 23 36 31 -11 11 -21 -8
-66 -15 -105 -15 l-69 0 -7 38 c-3 20 -6 56 -6 80 0 23 -4 42 -9 42 -5 0 -7
-36 -4 -82z"/>
<path d="M2392 2649 c-1 -48 -4 -102 -7 -120 l-5 -34 10 33 c6 18 9 72 7 120
l-3 87 -2 -86z"/>
<path d="M2482 2687 c9 -7 19 -24 23 -38 3 -13 15 -35 26 -49 17 -20 19 -21
14 -5 -4 11 -13 35 -20 54 -12 32 -30 51 -50 51 -5 -1 -2 -6 7 -13z"/>
<path d="M2138 2549 c-24 -14 -23 -46 2 -59 18 -10 20 -8 20 30 0 22 -1 40 -2
40 -2 0 -11 -5 -20 -11z"/>
<path d="M2351 2458 c0 -43 2 -78 7 -78 4 0 6 24 4 52 -5 95 -9 104 -11 26z"/>
<path d="M1470 2475 c0 -20 -5 -25 -25 -25 -18 0 -25 -5 -25 -20 0 -15 7 -20
25 -20 20 0 25 -5 25 -25 0 -18 5 -25 20 -25 15 0 20 7 20 25 0 20 5 25 25 25
18 0 25 5 25 20 0 15 -7 20 -25 20 -20 0 -25 5 -25 25 0 18 -5 25 -20 25 -15
0 -20 -7 -20 -25z"/>
<path d="M17695 2401 c-41 -10 -66 -25 -95 -56 -22 -24 -25 -35 -25 -105 0
-43 3 -82 7 -86 5 -4 17 1 28 11 20 18 22 18 51 1 24 -14 42 -16 93 -11 l63 7
44 -77 c42 -73 44 -76 58 -56 14 22 41 29 41 11 0 -18 -40 -90 -50 -90 -5 0
-33 39 -62 88 l-53 87 -63 -3 c-37 -2 -69 2 -77 8 -11 9 -19 8 -34 -2 -19 -14
-19 -16 -4 -39 46 -69 132 -141 242 -204 l64 -35 56 31 c90 50 193 133 229
183 l33 46 -38 0 c-21 0 -47 -7 -57 -15 -32 -24 -45 -18 -56 28 -26 106 -33
127 -40 127 -4 0 -23 -40 -41 -90 -30 -81 -59 -117 -59 -73 0 27 90 253 101
253 12 0 26 -36 52 -137 19 -77 22 -82 38 -67 10 9 28 15 41 14 68 -6 77 -2
88 42 27 100 -22 186 -117 206 -79 17 -169 -10 -211 -62 l-19 -25 -29 31 c-47
49 -134 75 -199 59z"/>
<path d="M2116 2303 c-4 -4 -21 -7 -39 -8 -42 0 -50 -36 -13 -60 32 -21 54
-17 79 17 17 22 18 30 7 43 -14 17 -23 19 -34 8z"/>
<path d="M1497 2224 c-4 -4 -7 -16 -7 -26 0 -20 25 -25 36 -7 8 13 -19 43 -29
33z"/>
<path d="M1640 2094 c-78 -34 -140 -129 -140 -214 0 -60 38 -139 86 -178 115
-95 294 -54 359 83 36 78 11 202 -53 263 -63 59 -175 79 -252 46z m161 -151
c35 -36 32 -97 -4 -129 -63 -54 -157 -14 -157 66 0 85 103 125 161 63z"/>
<path d="M15357 1924 c-10 -14 -32 -27 -48 -31 -28 -5 -51 -23 -30 -23 34 0
111 50 111 72 0 15 -15 7 -33 -18z"/>
<path d="M15882 1928 c17 -26 82 -62 101 -55 6 2 -9 13 -36 25 -26 11 -50 28
-53 36 -3 9 -11 16 -16 16 -6 0 -4 -10 4 -22z"/>
<path d="M15632 1871 c-19 -61 -13 -181 8 -181 4 0 3 23 -2 52 -9 48 -3 97 18
152 3 9 2 16 -3 16 -6 0 -15 -17 -21 -39z"/>
<path d="M2220 1830 c0 -7 147 -10 420 -10 273 0 420 3 420 10 0 7 -147 10
-420 10 -273 0 -420 -3 -420 -10z"/>
<path d="M2418 1763 c123 -2 321 -2 440 0 119 1 19 2 -223 2 -242 0 -340 -1
-217 -2z"/>
<path d="M2831 1654 c-1 -15 30 -106 35 -101 2 2 -5 28 -15 58 -11 30 -20 49
-20 43z"/>
<path d="M2882 1500 c3 -8 15 -46 28 -83 12 -38 24 -66 26 -64 5 5 -43 148
-53 156 -3 3 -4 -1 -1 -9z"/>
<path d="M15561 1405 c-1 -34 53 -301 57 -282 4 21 -35 252 -48 282 -8 20 -9
20 -9 0z"/>
<path d="M2965 1258 c4 -13 11 -27 16 -33 5 -5 4 5 -2 23 -12 36 -24 44 -14
10z"/>
<path d="M2310 1085 c-7 -36 -10 -68 -8 -70 3 -3 10 25 17 61 6 37 10 68 8 71
-3 2 -10 -26 -17 -62z"/>
<path d="M2292 980 c0 -14 2 -19 5 -12 2 6 2 18 0 25 -3 6 -5 1 -5 -13z"/>
<path d="M2282 930 c0 -14 2 -19 5 -12 2 6 2 18 0 25 -3 6 -5 1 -5 -13z"/>
<path d="M2272 880 c0 -14 2 -19 5 -12 2 6 2 18 0 25 -3 6 -5 1 -5 -13z"/>
<path d="M2251 784 c-6 -38 -15 -80 -18 -94 -3 -14 -3 -22 0 -19 9 8 39 157
35 171 -2 6 -10 -20 -17 -58z"/>
<path d="M2956 455 c21 -30 39 -53 41 -51 5 4 -66 106 -73 106 -2 0 12 -25 32
-55z"/>
<path d="M15925 368 c-22 -5 -82 -8 -132 -5 -111 5 -124 -7 -19 -17 76 -7 203
7 221 25 11 11 -16 10 -70 -3z"/>
<path d="M15600 359 c-14 -4 -79 -8 -145 -9 -77 -1 -113 -4 -100 -10 43 -18
251 -8 272 14 11 11 -1 13 -27 5z"/>
<path d="M2505 350 c-13 -6 -15 -9 -5 -9 8 0 22 4 30 9 18 12 2 12 -25 0z"/>
<path d="M2835 350 c-12 -5 1 -6 35 -3 30 3 57 7 59 9 9 8 -75 2 -94 -6z"/>
<path d="M2448 333 c6 -2 18 -2 25 0 6 3 1 5 -13 5 -14 0 -19 -2 -12 -5z"/>
<path d="M2308 323 c23 -2 61 -2 85 0 23 2 4 4 -43 4 -47 0 -66 -2 -42 -4z"/>
<path d="M15823 283 l-83 -4 0 -108 c0 -75 4 -112 13 -119 13 -10 243 -41 342
-45 85 -3 86 18 3 74 -78 52 -146 121 -154 157 -10 46 -13 52 -26 50 -7 -1
-50 -4 -95 -5z"/>
<path d="M15387 241 c-8 -37 -74 -105 -152 -158 -38 -25 -60 -47 -60 -59 0
-17 7 -19 71 -16 39 2 129 11 200 20 l129 17 3 113 3 112 -94 0 -94 0 -6 -29z"/>
<path d="M2289 189 c-10 -6 -6 -9 13 -9 15 0 30 -4 33 -10 3 -5 11 -10 17 -10
16 0 -9 27 -31 33 -10 2 -25 1 -32 -4z"/>
<path d="M2943 192 c-12 -2 -27 -10 -33 -18 -15 -17 -15 -17 34 0 39 14 39 25
-1 18z"/>
<path d="M2260 156 c0 -3 14 -11 30 -20 32 -16 42 -3 11 14 -20 10 -41 13 -41
6z"/>
<path d="M2955 140 c-23 -25 -14 -25 27 0 27 16 29 20 12 20 -11 0 -29 -9 -39
-20z"/>
<path d="M2246 109 c12 -13 20 -16 22 -9 3 7 -2 16 -9 21 -25 16 -32 9 -13
-12z"/>
<path d="M3000 110 c-6 -11 -8 -20 -5 -20 3 0 15 9 27 20 18 17 19 20 5 20 -9
0 -21 -9 -27 -20z"/>
</g>
</svg>
